<?xml version="1.0" encoding="utf-8"?>
<!-- Generator: Adobe Illustrator 16.0.0, SVG Export Plug-In . SVG Version: 6.00 Build 0)  -->
<!DOCTYPE svg PUBLIC "-//W3C//DTD SVG 1.1//EN" "http://www.w3.org/Graphics/SVG/1.1/DTD/svg11.dtd">
<svg version="1.1" id="Layer_1" xmlns="http://www.w3.org/2000/svg" xmlns:xlink="http://www.w3.org/1999/xlink" x="0px" y="0px"
	 width="50px" height="50px" viewBox="0 0 50 50" enable-background="new 0 0 50 50" xml:space="preserve">
<path fill="none" stroke="#2CAB4F" stroke-width="1.2" stroke-linecap="round" stroke-linejoin="round" stroke-miterlimit="10" d="
	M-96.218,26.41h-28.745c-1.248,0-2.268-1.021-2.268-2.269V6.51c0-1.247,1.02-2.267,2.268-2.267h28.745
	c1.247,0,2.268,1.02,2.268,2.267v17.632C-93.95,25.39-94.971,26.41-96.218,26.41z"/>
<path fill="#FFFFFF" d="M-121.043,21.577c0,3.417-2.77,6.188-6.187,6.188c-3.418,0-6.188-2.771-6.188-6.188s2.77-6.187,6.188-6.187
	C-123.813,15.39-121.043,18.16-121.043,21.577"/>
<circle fill="none" stroke="#2CAB4F" stroke-width="1.2" stroke-linecap="round" stroke-linejoin="round" stroke-miterlimit="10" cx="-127.231" cy="21.577" r="6.188"/>
<path fill="#FFFFFF" d="M-115.781,26.795c0,2.491-2.019,4.511-4.51,4.511c-2.491,0-4.51-2.02-4.51-4.511
	c0-2.491,2.019-4.509,4.51-4.509C-117.8,22.286-115.781,24.304-115.781,26.795"/>
<circle fill="none" stroke="#2CAB4F" stroke-width="1.2" stroke-linecap="round" stroke-linejoin="round" stroke-miterlimit="10" cx="-120.291" cy="26.795" r="4.51"/>
<text transform="matrix(1 0 0 1 -113.7285 19.4092)" fill="#2CAB4F" font-family="'ApercuPro-Regular'" font-size="12">$</text>
<g>
	<defs>
		<rect id="SVGID_1_" x="-455" y="-255" width="960" height="560"/>
	</defs>
	<clipPath id="SVGID_2_">
		<use xlink:href="#SVGID_1_"  overflow="visible"/>
	</clipPath>
	
		<line clip-path="url(#SVGID_2_)" fill="none" stroke="#2CAB4F" stroke-width="1.2" stroke-linecap="round" stroke-miterlimit="10" x1="-123.231" y1="8.242" x2="-116.898" y2="8.242"/>
	
		<line clip-path="url(#SVGID_2_)" fill="none" stroke="#2CAB4F" stroke-width="1.2" stroke-linecap="round" stroke-miterlimit="10" x1="-123.231" y1="11.242" x2="-118.898" y2="11.242"/>
	
		<line clip-path="url(#SVGID_2_)" fill="none" stroke="#2CAB4F" stroke-width="1.2" stroke-linecap="round" stroke-miterlimit="10" x1="-104.284" y1="22.41" x2="-97.951" y2="22.41"/>
	
		<line clip-path="url(#SVGID_2_)" fill="none" stroke="#2CAB4F" stroke-width="1.2" stroke-linecap="round" stroke-miterlimit="10" x1="-102.284" y1="19.41" x2="-97.951" y2="19.41"/>
</g>
<g>
	<path fill="none" stroke="#2CAB4F" stroke-linecap="round" stroke-linejoin="round" stroke-miterlimit="10" d="M-96.218,26.41
		h-28.745c-1.248,0-2.268-1.021-2.268-2.269V6.51c0-1.247,1.02-2.267,2.268-2.267h28.745c1.247,0,2.268,1.02,2.268,2.267v17.632
		C-93.95,25.39-94.971,26.41-96.218,26.41z"/>
	<path fill="#FFFFFF" d="M-121.043,21.577c0,3.417-2.77,6.188-6.187,6.188c-3.418,0-6.188-2.771-6.188-6.188s2.77-6.187,6.188-6.187
		C-123.813,15.39-121.043,18.16-121.043,21.577"/>
	
		<circle fill="none" stroke="#2CAB4F" stroke-linecap="round" stroke-linejoin="round" stroke-miterlimit="10" cx="-127.231" cy="21.577" r="6.188"/>
	<path fill="#FFFFFF" d="M-115.781,26.795c0,2.491-2.019,4.511-4.51,4.511c-2.491,0-4.51-2.02-4.51-4.511
		c0-2.491,2.019-4.509,4.51-4.509C-117.8,22.286-115.781,24.304-115.781,26.795"/>
	
		<circle fill="none" stroke="#2CAB4F" stroke-linecap="round" stroke-linejoin="round" stroke-miterlimit="10" cx="-120.291" cy="26.795" r="4.51"/>
	<text transform="matrix(1 0 0 1 -113.7285 19.4092)" fill="#2CAB4F" font-family="'ApercuPro-Regular'" font-size="12">$</text>
	<g>
		<defs>
			<rect id="SVGID_3_" x="-455" y="-255" width="960" height="560"/>
		</defs>
		<clipPath id="SVGID_4_">
			<use xlink:href="#SVGID_3_"  overflow="visible"/>
		</clipPath>
		
			<line clip-path="url(#SVGID_4_)" fill="none" stroke="#2CAB4F" stroke-linecap="round" stroke-miterlimit="10" x1="-123.231" y1="8.242" x2="-116.898" y2="8.242"/>
		
			<line clip-path="url(#SVGID_4_)" fill="none" stroke="#2CAB4F" stroke-linecap="round" stroke-miterlimit="10" x1="-123.231" y1="11.242" x2="-118.898" y2="11.242"/>
		
			<line clip-path="url(#SVGID_4_)" fill="none" stroke="#2CAB4F" stroke-linecap="round" stroke-miterlimit="10" x1="-104.284" y1="22.41" x2="-97.951" y2="22.41"/>
		
			<line clip-path="url(#SVGID_4_)" fill="none" stroke="#2CAB4F" stroke-linecap="round" stroke-miterlimit="10" x1="-102.284" y1="19.41" x2="-97.951" y2="19.41"/>
	</g>
</g>
<path fill="none" stroke="#2CAB4F" stroke-width="1.2" stroke-linecap="round" stroke-linejoin="round" stroke-miterlimit="10" d="
	M-96.218,26.41h-28.745c-1.248,0-2.268-1.021-2.268-2.269V6.51c0-1.247,1.02-2.267,2.268-2.267h28.745
	c1.247,0,2.268,1.02,2.268,2.267v17.632C-93.95,25.39-94.971,26.41-96.218,26.41z"/>
<path fill="#FFFFFF" d="M-121.043,21.577c0,3.417-2.77,6.188-6.187,6.188c-3.418,0-6.188-2.771-6.188-6.188s2.77-6.187,6.188-6.187
	C-123.813,15.39-121.043,18.16-121.043,21.577"/>
<circle fill="none" stroke="#2CAB4F" stroke-width="1.2" stroke-linecap="round" stroke-linejoin="round" stroke-miterlimit="10" cx="-127.231" cy="21.577" r="6.188"/>
<path fill="#FFFFFF" d="M-115.781,26.795c0,2.491-2.019,4.511-4.51,4.511c-2.491,0-4.51-2.02-4.51-4.511
	c0-2.491,2.019-4.509,4.51-4.509C-117.8,22.286-115.781,24.304-115.781,26.795"/>
<circle fill="none" stroke="#2CAB4F" stroke-width="1.2" stroke-linecap="round" stroke-linejoin="round" stroke-miterlimit="10" cx="-120.291" cy="26.795" r="4.51"/>
<text transform="matrix(1 0 0 1 -113.7285 19.4092)" fill="#2CAB4F" font-family="'ApercuPro-Regular'" font-size="12">$</text>
<g>
	<defs>
		<rect id="SVGID_5_" x="-455" y="-255" width="960" height="560"/>
	</defs>
	<clipPath id="SVGID_6_">
		<use xlink:href="#SVGID_5_"  overflow="visible"/>
	</clipPath>
	
		<line clip-path="url(#SVGID_6_)" fill="none" stroke="#2CAB4F" stroke-width="1.2" stroke-linecap="round" stroke-miterlimit="10" x1="-123.231" y1="8.242" x2="-116.898" y2="8.242"/>
	
		<line clip-path="url(#SVGID_6_)" fill="none" stroke="#2CAB4F" stroke-width="1.2" stroke-linecap="round" stroke-miterlimit="10" x1="-123.231" y1="11.242" x2="-118.898" y2="11.242"/>
	
		<line clip-path="url(#SVGID_6_)" fill="none" stroke="#2CAB4F" stroke-width="1.2" stroke-linecap="round" stroke-miterlimit="10" x1="-104.284" y1="22.41" x2="-97.951" y2="22.41"/>
	
		<line clip-path="url(#SVGID_6_)" fill="none" stroke="#2CAB4F" stroke-width="1.2" stroke-linecap="round" stroke-miterlimit="10" x1="-102.284" y1="19.41" x2="-97.951" y2="19.41"/>
</g>
<path fill="none" stroke="#2CAB4F" stroke-width="1.2" stroke-linecap="round" stroke-linejoin="round" stroke-miterlimit="10" d="
	M-96.218,24.41h-28.745c-1.248,0-2.268-1.021-2.268-2.269V4.51c0-1.247,1.02-2.267,2.268-2.267h28.745
	c1.247,0,2.268,1.02,2.268,2.267v17.632C-93.95,23.39-94.971,24.41-96.218,24.41z"/>
<path fill="#FFFFFF" d="M-121.043,19.577c0,3.417-2.77,6.188-6.187,6.188c-3.418,0-6.188-2.771-6.188-6.188s2.77-6.187,6.188-6.187
	C-123.813,13.39-121.043,16.16-121.043,19.577"/>
<circle fill="none" stroke="#2CAB4F" stroke-width="1.2" stroke-linecap="round" stroke-linejoin="round" stroke-miterlimit="10" cx="-127.231" cy="19.577" r="6.188"/>
<path fill="#FFFFFF" d="M-115.781,24.795c0,2.491-2.019,4.511-4.51,4.511c-2.491,0-4.51-2.02-4.51-4.511
	c0-2.491,2.019-4.509,4.51-4.509C-117.8,20.286-115.781,22.304-115.781,24.795"/>
<circle fill="none" stroke="#2CAB4F" stroke-width="1.2" stroke-linecap="round" stroke-linejoin="round" stroke-miterlimit="10" cx="-120.291" cy="24.795" r="4.51"/>
<text transform="matrix(1 0 0 1 -113.7285 17.4092)" fill="#2CAB4F" font-family="'ApercuPro-Regular'" font-size="12">$</text>
<g>
	<defs>
		<rect id="SVGID_7_" x="-455" y="-257" width="960" height="560"/>
	</defs>
	<clipPath id="SVGID_8_">
		<use xlink:href="#SVGID_7_"  overflow="visible"/>
	</clipPath>
	
		<line clip-path="url(#SVGID_8_)" fill="none" stroke="#2CAB4F" stroke-width="1.2" stroke-linecap="round" stroke-miterlimit="10" x1="-123.231" y1="6.242" x2="-116.898" y2="6.242"/>
	
		<line clip-path="url(#SVGID_8_)" fill="none" stroke="#2CAB4F" stroke-width="1.2" stroke-linecap="round" stroke-miterlimit="10" x1="-123.231" y1="9.242" x2="-118.898" y2="9.242"/>
	
		<line clip-path="url(#SVGID_8_)" fill="none" stroke="#2CAB4F" stroke-width="1.2" stroke-linecap="round" stroke-miterlimit="10" x1="-104.284" y1="20.41" x2="-97.951" y2="20.41"/>
	
		<line clip-path="url(#SVGID_8_)" fill="none" stroke="#2CAB4F" stroke-width="1.2" stroke-linecap="round" stroke-miterlimit="10" x1="-102.284" y1="17.41" x2="-97.951" y2="17.41"/>
</g>
<circle fill="none" stroke="#2CAB4F" stroke-width="1.2" stroke-linecap="round" stroke-miterlimit="10" cx="25.146" cy="25.389" r="14.146"/>
<polyline fill="none" stroke="#2CAB4F" stroke-width="1.3" stroke-linecap="round" stroke-linejoin="round" stroke-miterlimit="10" points="
	25.173,16.588 25.173,25.828 30.134,30.053 "/>
</svg>
