<?xml version="1.0" encoding="utf-8"?>
<!-- Generator: Adobe Illustrator 16.0.0, SVG Export Plug-In . SVG Version: 6.00 Build 0)  -->
<!DOCTYPE svg PUBLIC "-//W3C//DTD SVG 1.1//EN" "http://www.w3.org/Graphics/SVG/1.1/DTD/svg11.dtd">
<svg version="1.1" id="Layer_1" xmlns="http://www.w3.org/2000/svg" xmlns:xlink="http://www.w3.org/1999/xlink" x="0px" y="0px"
	 width="6px" height="10px" viewBox="0 0 6 10" enable-background="new 0 0 6 10" xml:space="preserve">
<path fill="#162C5D" d="M5.727,5.711c-0.065,0.064-0.144,0.102-0.22,0.145L1.653,9.71c-0.375,0.376-0.982,0.376-1.357,0
	c-0.375-0.374-0.375-0.981,0-1.356l3.356-3.357L0.295,1.638c-0.375-0.375-0.375-0.982,0-1.356c0.375-0.376,0.982-0.376,1.357,0
	l3.854,3.854c0.077,0.042,0.155,0.08,0.221,0.144c0.195,0.197,0.282,0.458,0.272,0.715C6.009,5.253,5.922,5.514,5.727,5.711z"/>
</svg>
