<?xml version="1.0" encoding="utf-8"?>
<!-- Generator: Adobe Illustrator 16.0.0, SVG Export Plug-In . SVG Version: 6.00 Build 0)  -->
<!DOCTYPE svg PUBLIC "-//W3C//DTD SVG 1.1//EN" "http://www.w3.org/Graphics/SVG/1.1/DTD/svg11.dtd">
<svg version="1.1" id="Layer_1" xmlns="http://www.w3.org/2000/svg" xmlns:xlink="http://www.w3.org/1999/xlink" x="0px" y="0px"
	 width="6px" height="10px" viewBox="0 0 6 10" enable-background="new 0 0 6 10" xml:space="preserve">
<path fill="#162C5D" d="M0.287,4.281c0.065-0.064,0.144-0.102,0.22-0.145l3.854-3.854c0.375-0.376,0.981-0.376,1.356,0
	c0.375,0.374,0.375,0.981,0,1.356L2.361,4.996l3.357,3.357c0.375,0.375,0.375,0.982,0,1.356c-0.375,0.376-0.982,0.376-1.357,0
	L0.508,5.856c-0.077-0.042-0.155-0.08-0.221-0.144C0.092,5.516,0.005,5.254,0.015,4.997C0.005,4.739,0.092,4.479,0.287,4.281z"/>
</svg>
