<?xml version="1.0" encoding="utf-8"?>
<!-- Generator: Adobe Illustrator 16.0.0, SVG Export Plug-In . SVG Version: 6.00 Build 0)  -->
<!DOCTYPE svg PUBLIC "-//W3C//DTD SVG 1.1//EN" "http://www.w3.org/Graphics/SVG/1.1/DTD/svg11.dtd">
<svg version="1.1" id="Layer_1" xmlns="http://www.w3.org/2000/svg" xmlns:xlink="http://www.w3.org/1999/xlink" x="0px" y="0px"
	 width="6px" height="10px" viewBox="0 0 6 10" enable-background="new 0 0 6 10" xml:space="preserve">
<path fill-rule="evenodd" clip-rule="evenodd" fill="#FFFFFF" d="M0.288,4.281c0.064-0.064,0.143-0.103,0.219-0.146l3.854-3.854
	c0.375-0.376,0.982-0.376,1.357,0c0.375,0.374,0.375,0.982,0,1.357L2.361,4.997l3.357,3.357c0.375,0.375,0.375,0.982,0,1.357
	s-0.982,0.375-1.357,0L0.507,5.856C0.431,5.814,0.353,5.776,0.288,5.712C0.092,5.515,0.005,5.254,0.015,4.997
	C0.005,4.739,0.092,4.479,0.288,4.281z"/>
</svg>
