<?xml version="1.0" encoding="utf-8"?>
<!-- Generator: Adobe Illustrator 16.0.0, SVG Export Plug-In . SVG Version: 6.00 Build 0)  -->
<!DOCTYPE svg PUBLIC "-//W3C//DTD SVG 1.1//EN" "http://www.w3.org/Graphics/SVG/1.1/DTD/svg11.dtd">
<svg version="1.1" id="Layer_1" xmlns="http://www.w3.org/2000/svg" xmlns:xlink="http://www.w3.org/1999/xlink" x="0px" y="0px"
	 width="19px" height="68px" viewBox="0 0 19 68" enable-background="new 0 0 19 68" xml:space="preserve">
<g>
	<g>
		<path fill-rule="evenodd" clip-rule="evenodd" fill="#BEC7CB" d="M18.455,0.584c-0.777-0.779-2.041-0.779-2.82,0L10.02,6.2
			L4.405,0.584c-0.779-0.779-2.042-0.779-2.82,0c-0.779,0.779-0.779,2.042,0,2.821l6.773,6.773c0.067,0.097,0.141,0.191,0.227,0.278
			c0.396,0.396,0.917,0.588,1.435,0.582c0.52,0.007,1.04-0.186,1.436-0.582c0.087-0.086,0.16-0.181,0.228-0.278l6.772-6.773
			C19.234,2.626,19.234,1.363,18.455,0.584z"/>
	</g>
</g>
<g>
	<g>
		<path fill-rule="evenodd" clip-rule="evenodd" fill="#FFFFFF" d="M18.416,63.596l-6.771-6.771
			c-0.068-0.098-0.142-0.192-0.229-0.279c-0.396-0.396-0.917-0.589-1.436-0.582c-0.519-0.007-1.04,0.186-1.435,0.582
			c-0.087,0.087-0.16,0.182-0.228,0.278l-6.772,6.772c-0.779,0.778-0.779,2.041,0,2.82c0.777,0.779,2.041,0.779,2.82,0l5.615-5.615
			l5.615,5.615c0.779,0.779,2.041,0.779,2.82,0S19.195,64.374,18.416,63.596z"/>
	</g>
</g>
</svg>
