<?xml version="1.0" encoding="utf-8"?>
<!-- Generator: Adobe Illustrator 16.0.0, SVG Export Plug-In . SVG Version: 6.00 Build 0)  -->
<!DOCTYPE svg PUBLIC "-//W3C//DTD SVG 1.1//EN" "http://www.w3.org/Graphics/SVG/1.1/DTD/svg11.dtd">
<svg version="1.1" id="Layer_1" xmlns="http://www.w3.org/2000/svg" xmlns:xlink="http://www.w3.org/1999/xlink" x="0px" y="0px"
	 width="6px" height="10px" viewBox="0 0 6 10" enable-background="new 0 0 6 10" xml:space="preserve">
<path fill-rule="evenodd" clip-rule="evenodd" fill="#FFFFFF" d="M5.726,5.711C5.661,5.775,5.583,5.813,5.507,5.856L1.653,9.71
	c-0.375,0.376-0.982,0.376-1.357,0c-0.375-0.374-0.375-0.982,0-1.357l3.357-3.357L0.295,1.638c-0.375-0.375-0.375-0.982,0-1.356
	c0.375-0.376,0.982-0.376,1.357,0l3.854,3.854C5.583,4.178,5.661,4.216,5.726,4.28c0.196,0.197,0.283,0.458,0.273,0.715
	C6.009,5.253,5.922,5.514,5.726,5.711z"/>
</svg>
