<?xml version="1.0" encoding="utf-8"?>
<!-- Generator: Adobe Illustrator 16.0.0, SVG Export Plug-In . SVG Version: 6.00 Build 0)  -->
<!DOCTYPE svg PUBLIC "-//W3C//DTD SVG 1.1//EN" "http://www.w3.org/Graphics/SVG/1.1/DTD/svg11.dtd">
<svg version="1.1" id="Layer_1" xmlns="http://www.w3.org/2000/svg" xmlns:xlink="http://www.w3.org/1999/xlink" x="0px" y="0px"
	 width="19px" height="11px" viewBox="0 0 19 11" enable-background="new 0 0 19 11" xml:space="preserve">
<g>
	<g>
		<path fill-rule="evenodd" clip-rule="evenodd" fill="#BEC7CB" d="M18.449,0.584c-0.821-0.779-2.157-0.779-2.981,0L9.534,6.199
			L3.599,0.584c-0.824-0.779-2.158-0.779-2.981,0c-0.824,0.779-0.824,2.042,0,2.821l7.162,6.775c0.07,0.097,0.147,0.189,0.237,0.275
			c0.418,0.396,0.969,0.589,1.517,0.582c0.548,0.007,1.099-0.186,1.517-0.582c0.091-0.086,0.168-0.181,0.239-0.277l7.159-6.773
			C19.272,2.626,19.272,1.363,18.449,0.584z"/>
	</g>
</g>
</svg>
