<?xml version="1.0" encoding="utf-8"?>
<!-- Generator: Adobe Illustrator 16.0.0, SVG Export Plug-In . SVG Version: 6.00 Build 0)  -->
<!DOCTYPE svg PUBLIC "-//W3C//DTD SVG 1.1//EN" "http://www.w3.org/Graphics/SVG/1.1/DTD/svg11.dtd">
<svg version="1.1" id="Layer_1" xmlns="http://www.w3.org/2000/svg" xmlns:xlink="http://www.w3.org/1999/xlink" x="0px" y="0px"
	 width="35px" height="80px" viewBox="0 0 35 80" enable-background="new 0 0 35 80" xml:space="preserve">
<g>
	<path fill="#1E2E5C" d="M17.5,46C26.598,46,34,53.402,34,62.5S26.598,79,17.5,79C8.402,79,1,71.598,1,62.5S8.402,46,17.5,46
		 M17.5,45C7.835,45,0,52.836,0,62.5C0,72.166,7.835,80,17.5,80C27.166,80,35,72.166,35,62.5C35,52.836,27.166,45,17.5,45L17.5,45z"
		/>
</g>
<circle fill="#1E2E5C" cx="17.5" cy="62.5" r="6.5"/>
<g>
	<path fill="#96A7B0" d="M17.5,1C26.598,1,34,8.402,34,17.5S26.598,34,17.5,34C8.402,34,1,26.598,1,17.5S8.402,1,17.5,1 M17.5,0
		C7.835,0,0,7.836,0,17.5C0,27.166,7.835,35,17.5,35C27.166,35,35,27.166,35,17.5C35,7.836,27.166,0,17.5,0L17.5,0z"/>
</g>
<circle fill="#96A7B0" cx="17.5" cy="17.5" r="6.5"/>
</svg>
