<?xml version="1.0" encoding="utf-8"?>
<!-- Generator: Adobe Illustrator 16.0.0, SVG Export Plug-In . SVG Version: 6.00 Build 0)  -->
<!DOCTYPE svg PUBLIC "-//W3C//DTD SVG 1.1//EN" "http://www.w3.org/Graphics/SVG/1.1/DTD/svg11.dtd">
<svg version="1.1" id="Layer_1" xmlns="http://www.w3.org/2000/svg" xmlns:xlink="http://www.w3.org/1999/xlink" x="0px" y="0px"
	 width="35px" height="35px" viewBox="0 0 35 35" enable-background="new 0 0 35 35" xml:space="preserve">
<g>
	<path fill="#96A7B0" d="M17.5,1C26.598,1,34,8.402,34,17.5C34,26.598,26.598,34,17.5,34C8.402,34,1,26.598,1,17.5
		C1,8.402,8.402,1,17.5,1 M17.5,0C7.835,0,0,7.836,0,17.5C0,27.166,7.835,35,17.5,35C27.166,35,35,27.166,35,17.5
		C35,7.836,27.166,0,17.5,0L17.5,0z"/>
</g>
<circle fill="#96A7B0" cx="17.5" cy="17.5" r="6.5"/>
</svg>
