<?xml version="1.0" encoding="utf-8"?>
<!-- Generator: Adobe Illustrator 16.0.0, SVG Export Plug-In . SVG Version: 6.00 Build 0)  -->
<!DOCTYPE svg PUBLIC "-//W3C//DTD SVG 1.1//EN" "http://www.w3.org/Graphics/SVG/1.1/DTD/svg11.dtd">
<svg version="1.1" id="Layer_1" xmlns="http://www.w3.org/2000/svg" xmlns:xlink="http://www.w3.org/1999/xlink" x="0px" y="0px"
	 width="507px" height="131px" viewBox="155.445 233.14 507 131" enable-background="new 155.445 233.14 507 131"
	 xml:space="preserve">
<g>
	<g>
		<g>
			<defs>
				<path id="SVGID_1_" d="M222.729,234.907v63.743h31.872c17.529,0,31.87-14.341,31.87-31.87c0-17.53-14.023-31.552-31.87-31.873
					H222.729z"/>
			</defs>
			<clipPath id="SVGID_2_">
				<use xlink:href="#SVGID_1_"  overflow="visible"/>
			</clipPath>
			
				<linearGradient id="SVGID_3_" gradientUnits="userSpaceOnUse" x1="-541.9844" y1="242.9009" x2="-540.5267" y2="242.9009" gradientTransform="matrix(28.3572 0 0 -28.3572 15586.252 7154.7612)">
				<stop  offset="0" style="stop-color:#2E9150"/>
				<stop  offset="1" style="stop-color:#30AA51"/>
			</linearGradient>
			<rect x="222.729" y="234.907" clip-path="url(#SVGID_2_)" fill="url(#SVGID_3_)" width="63.742" height="63.743"/>
		</g>
	</g>
	<path fill="#30AA51" d="M158.988,298.65v31.551c0,17.85,14.342,32.189,32.188,32.189c17.53,0,31.551-14.021,31.551-31.551v-32.19
		v-63.743L158.988,298.65z"/>
	<path fill="#162C5D" d="M324.794,310.429v-54.967c0-0.786,0.521-1.31,1.308-1.31h16.619c0.788,0,1.308,0.524,1.308,1.31v55.493
		c0,10.6,5.891,16.615,14.92,16.615c8.899,0,14.791-6.016,14.791-16.615v-55.493c0-0.786,0.523-1.31,1.307-1.31h16.621
		c0.789,0,1.309,0.524,1.309,1.31v54.967c0,22.117-14.134,34.156-34.027,34.156C338.926,344.585,324.794,332.546,324.794,310.429"/>
	<path fill="#162C5D" d="M410.895,343.146c-0.787,0-1.31-0.523-1.31-1.311V255.46c0-0.787,0.522-1.308,1.31-1.308h34.546
		c19.369,0,31.02,11.646,31.02,28.661c0,16.752-11.777,28.532-31.02,28.532h-15.832c-0.525,0-0.787,0.258-0.787,0.781v29.709
		c0,0.785-0.525,1.311-1.311,1.311H410.895z M457.224,282.813c0-7.196-4.846-12.038-12.959-12.038h-14.656
		c-0.525,0-0.787,0.257-0.787,0.78v22.381c0,0.522,0.262,0.785,0.787,0.785h14.656C452.378,294.722,457.224,290.009,457.224,282.813
		"/>
	<path fill="#162C5D" d="M488.75,255.461c0-0.787,0.521-1.308,1.307-1.308h57.061c0.785,0,1.309,0.521,1.309,1.308v14.005
		c0,0.782-0.523,1.31-1.309,1.31h-38.348c-0.521,0-0.781,0.258-0.781,0.78v18.718c0,0.521,0.26,0.786,0.781,0.786h31.936
		c0.785,0,1.309,0.523,1.309,1.309v13.871c0,0.785-0.521,1.309-1.309,1.309h-31.936c-0.521,0-0.781,0.266-0.781,0.787v33.502
		c0,0.785-0.525,1.311-1.311,1.311h-16.621c-0.783,0-1.307-0.523-1.307-1.311V255.461z"/>
	<path fill="#162C5D" d="M561.63,255.461c0-0.787,0.523-1.308,1.309-1.308h16.623c0.779,0,1.311,0.521,1.311,1.308v86.376
		c0,0.785-0.529,1.311-1.311,1.311h-16.623c-0.783,0-1.309-0.525-1.309-1.311V255.461z"/>
	<path fill="#162C5D" d="M617.511,343.146c-0.787,0-1.311-0.523-1.311-1.309v-69.753c0-0.529-0.264-0.787-0.789-0.787h-22.508
		c-0.785,0-1.309-0.523-1.309-1.31V255.46c0-0.787,0.523-1.308,1.309-1.308h65.826c0.785,0,1.313,0.521,1.313,1.308v14.527
		c0,0.787-0.525,1.31-1.313,1.31h-22.51c-0.52,0-0.785,0.258-0.785,0.787v69.753c0,0.783-0.52,1.309-1.309,1.309H617.511z"/>
</g>
</svg>
